<svg class="w-[184px]" xmlns="http://www.w3.org/2000/svg" width="184" height="31" viewBox="0 0 184 31" fill="none"><path d="M0 31H6.80519L21.2555 5.80845L17.7009 0L0 31Z" fill="#4F3696"></path><path d="M8.23438 31.0004H15.0396L25.4461 12.3524L21.8915 6.54395L8.23438 31.0004Z" fill="#4F3696"></path><path d="M21.6484 23.6403L24.2988 18.7754H35.5044L32.854 23.6403H21.6484Z" fill="#7062B2"></path><path d="M33.707 23.6077L36.3204 18.8096H42.0557L39.4423 23.6077H33.707Z" fill="#7062B2"></path><path d="M27.2649 13.5275H32.8072L24.8133 0H19.0078L27.2649 13.5275Z" fill="#6D52CE"></path><path d="M33.9743 13.5275H39.5166L31.5207 0H25.9062L33.9743 13.5275Z" fill="#6D52CE"></path><path d="M35.3205 17.94L33.0326 14.168H27.4805L29.4663 17.9145" fill="#6D52CE"></path><path d="M42.0548 17.94L39.767 14.168H34.2148L36.2007 17.9145" fill="#6D52CE"></path><path d="M52.7068 22.0657H50.2812V8.94629H55.7926C57.3635 8.94629 58.5286 9.33274 59.2879 10.1038C60.0472 10.8767 60.4268 11.7882 60.4268 12.8382C60.4268 14.0358 60.0154 15.0074 59.1944 15.7493C58.3734 16.4931 57.3317 16.865 56.0694 16.865H52.7068V22.0639V22.0657ZM52.7068 14.8379H55.5756C56.3256 14.8379 56.896 14.6593 57.2906 14.3001C57.6852 13.941 57.8815 13.4634 57.8815 12.8673C57.8815 12.3296 57.6983 11.8684 57.3336 11.4838C56.9689 11.0991 56.3106 10.9077 55.3568 10.9077H52.705V14.8379H52.7068Z" fill="#636363"></path><path d="M53.0351 22.3844H49.9531V8.62695H55.7936C57.4505 8.62695 58.7054 9.04987 59.5264 9.88293C60.3418 10.7123 60.757 11.7077 60.757 12.8378C60.757 14.123 60.3063 15.1821 59.4198 15.9842C58.539 16.7808 57.4131 17.1836 56.0704 17.1836H53.037V22.3825L53.0351 22.3844ZM50.6095 21.7445H52.3787V16.5456H56.0685C57.2561 16.5456 58.2042 16.2084 58.971 15.5157C59.7303 14.8303 60.0987 13.9535 60.0987 12.8378C60.0987 11.8644 59.7564 11.0423 59.0514 10.3241C58.3594 9.62043 57.2635 9.26497 55.7936 9.26497H50.6095V21.7445ZM55.5767 15.1566H52.3787V10.5866H55.3597C56.4182 10.5866 57.1438 10.809 57.5777 11.2665C57.9985 11.7095 58.2117 12.2491 58.2117 12.867C58.2117 13.5524 57.9779 14.1121 57.516 14.5331C57.0616 14.9469 56.4089 15.1566 55.5767 15.1566ZM53.0351 14.5167H55.5767C56.2368 14.5167 56.738 14.3654 57.069 14.0647C57.3963 13.7657 57.5571 13.3738 57.5571 12.867C57.5571 12.4076 57.4075 12.0267 57.0971 11.7004C56.7979 11.385 56.2144 11.2264 55.3616 11.2264H53.037V14.5167H53.0351Z" fill="#636363"></path><path d="M74.1439 22.0657H71.5799L69.4891 16.6736H66.0779V22.0657H63.6523V8.94629H69.4891C71.1124 8.94629 72.3055 9.30358 73.0685 10.0182C73.8316 10.7327 74.2131 11.6569 74.2131 12.7908C74.2131 14.4751 73.4052 15.6363 71.7875 16.2707L74.1439 22.0657ZM66.0779 14.7814H69.0945C69.9678 14.7814 70.6186 14.6027 71.0469 14.2436C71.4733 13.8845 71.6884 13.3923 71.6884 12.7634C71.6884 12.1874 71.477 11.7207 71.0581 11.3653C70.6373 11.0098 70.0482 10.8312 69.2927 10.8312H66.0779V14.7814Z" fill="#636363"></path><path d="M74.6294 22.3844H71.3567L69.2658 16.9922H66.4101V22.3844H63.3281V8.62695H69.494C71.1977 8.62695 72.4788 9.01705 73.2998 9.78814C74.1264 10.5629 74.5434 11.5728 74.5434 12.7923C74.5434 14.5058 73.7598 15.7308 72.2113 16.4417L74.6294 22.388V22.3844ZM71.8092 21.7445H73.6626L71.3642 16.0917L71.6671 15.9732C73.1614 15.3881 73.887 14.3472 73.887 12.7905C73.887 11.7368 73.5466 10.9056 72.8434 10.2475C72.1477 9.59491 71.02 9.26497 69.4921 9.26497H63.9827V21.7445H65.7518V16.3524H69.7184L71.8092 21.7445ZM69.0975 15.1001H65.7518V10.51H69.2939C70.128 10.51 70.7938 10.716 71.2744 11.1225C71.7681 11.5399 72.0187 12.0923 72.0187 12.7631C72.0187 13.485 71.7644 14.0647 71.2632 14.4857C70.7769 14.8941 70.0476 15.1019 69.0975 15.1019V15.1001ZM66.4083 14.4602H69.0975C69.8867 14.4602 70.4721 14.3053 70.8349 13.999C71.1902 13.7019 71.3623 13.2972 71.3623 12.7613C71.3623 12.2782 71.1921 11.8991 70.8443 11.6037C70.4871 11.3011 69.9653 11.148 69.2939 11.148H66.4083V14.4584V14.4602Z" fill="#636363"></path><path d="M86.6463 22.0657H77.9023V8.94629H86.5584V10.8968H80.3277V14.4533H85.3355V16.3564H80.3277V20.0277H86.6463V22.0657Z" fill="#636363"></path><path d="M86.9755 22.3844H77.5742V8.62695H86.8876V11.2173H80.6562V14.1339H85.6645V16.6769H80.6562V19.7084H86.9755V22.3862V22.3844ZM78.2306 21.7445H86.319V20.3464H79.9998V16.0352H85.0081V14.7719H79.9998V10.5756H86.2311V9.26497H78.2306V21.7445Z" fill="#636363"></path><path d="M88.6055 18.903L90.9619 18.4127C91.2442 19.7142 92.3289 20.3632 94.2159 20.3632C95.0762 20.3632 95.7401 20.1973 96.202 19.8637C96.6658 19.5301 96.8977 19.1181 96.8977 18.6241C96.8977 18.265 96.793 17.9332 96.5816 17.6288C96.3703 17.3244 95.9215 17.0856 95.2314 16.9124L92.6581 16.258C91.7772 16.0338 91.1264 15.7786 90.7056 15.4942C90.2849 15.2098 89.9482 14.807 89.6958 14.2874C89.4433 13.7679 89.3161 13.2138 89.3161 12.625C89.3161 11.4528 89.7631 10.5122 90.657 9.80494C91.551 9.09765 92.6955 8.74219 94.0887 8.74219C95.2464 8.74219 96.2787 8.98828 97.1894 9.48228C98.1002 9.97629 98.68 10.6745 98.9306 11.5768L96.6228 12.1346C96.2675 11.1411 95.439 10.6453 94.1374 10.6453C93.3818 10.6453 92.804 10.7984 92.4075 11.1065C92.0091 11.4146 91.8109 11.8047 91.8109 12.2786C91.8109 13.0278 92.4355 13.5528 93.6848 13.8554L95.972 14.4132C97.3596 14.7523 98.2891 15.2536 98.7622 15.9171C99.2354 16.5806 99.4729 17.3116 99.4729 18.1137C99.4729 19.4007 98.9754 20.416 97.9786 21.1561C96.9837 21.8962 95.6933 22.2663 94.1093 22.2663C92.774 22.2663 91.6071 21.9947 90.6047 21.4496C89.6023 20.9046 88.9365 20.0569 88.6073 18.903H88.6055Z" fill="#636363"></path><path d="M94.1069 22.5869C92.7229 22.5869 91.4886 22.2989 90.4414 21.7301C89.3642 21.145 88.6404 20.2226 88.2888 18.9903L88.1953 18.6622L91.2137 18.0351L91.2811 18.3487C91.5298 19.4916 92.4892 20.0458 94.2134 20.0458C94.9989 20.0458 95.6011 19.8981 96.0051 19.6083C96.3828 19.3367 96.5661 19.0158 96.5661 18.6257C96.5661 18.3286 96.4819 18.0625 96.3061 17.8091C96.1939 17.6468 95.9022 17.4135 95.1467 17.2239L92.5715 16.5695C91.6439 16.3325 90.9706 16.0682 90.5143 15.7583C90.0486 15.443 89.6709 14.9945 89.3941 14.4276C89.121 13.868 88.9826 13.2628 88.9826 12.6284C88.9826 11.3597 89.4745 10.3279 90.4451 9.55865C91.3951 8.80579 92.6182 8.4248 94.0825 8.4248C95.2907 8.4248 96.3866 8.6873 97.3422 9.205C98.3296 9.73911 98.9674 10.5102 99.2404 11.4964L99.3283 11.8117L96.4053 12.5172L96.3061 12.242C95.9994 11.3834 95.2888 10.9677 94.1312 10.9677C93.4542 10.9677 92.9418 11.099 92.6051 11.3597C92.2872 11.6058 92.132 11.9065 92.132 12.2821C92.132 12.499 92.132 13.157 93.7553 13.5471L96.0443 14.105C97.5255 14.4677 98.4998 15.0018 99.0253 15.7364C99.5359 16.451 99.794 17.2513 99.794 18.1153C99.794 19.5026 99.2479 20.6109 98.1707 21.4111C97.1215 22.1913 95.7526 22.5869 94.1012 22.5869H94.1069ZM89.0257 19.1434C89.3567 20.0531 89.9252 20.7184 90.7612 21.1705C91.7093 21.6864 92.8352 21.9471 94.1069 21.9471C95.6105 21.9471 96.8448 21.5952 97.778 20.9025C98.6962 20.2208 99.1432 19.3093 99.1432 18.1153C99.1432 17.3843 98.9244 16.7081 98.4923 16.1029C98.0678 15.5086 97.1926 15.0456 95.891 14.7266L93.6038 14.1688C92.1956 13.8297 91.4812 13.1953 91.4812 12.2821C91.4812 11.7078 91.7243 11.2284 92.2012 10.8584C92.6556 10.5066 93.3064 10.3279 94.1349 10.3279C95.4646 10.3279 96.3641 10.8092 96.8167 11.7607L98.5054 11.3524C98.2418 10.6816 97.7555 10.1602 97.0262 9.76463C96.1696 9.2998 95.1803 9.06464 94.0844 9.06464C92.7753 9.06464 91.6906 9.39823 90.8603 10.0545C90.0393 10.7052 89.6409 11.5456 89.6409 12.6266C89.6409 13.1662 89.7588 13.6784 89.9888 14.1524C90.2151 14.6172 90.5199 14.9818 90.8902 15.2333C91.2773 15.4958 91.8982 15.7364 92.7379 15.9497L95.3112 16.6023C96.0873 16.7974 96.5923 17.0745 96.8522 17.45C97.0991 17.8073 97.2244 18.201 97.2244 18.6239C97.2244 19.2218 96.9457 19.7268 96.3959 20.1205C95.8779 20.4942 95.1429 20.682 94.2153 20.682C92.3115 20.682 91.1389 20.0458 90.7256 18.788L89.0275 19.1416L89.0257 19.1434Z" fill="#636363"></path><path d="M107.526 22.0658H104.923V10.9753H101.344V8.94824H111.104V10.9753H107.525V22.0658H107.526Z" fill="#636363"></path><path d="M107.855 22.3844H104.595V11.2939H101.016V8.62695H111.432V11.2939H107.853V22.3844H107.855ZM105.252 21.7445H107.198V10.654H110.778V9.26679H101.672V10.654H105.252V21.7445Z" fill="#636363"></path><path d="M118.823 22.2654C117.035 22.2654 115.643 21.611 114.647 20.304C113.65 18.997 113.152 17.3819 113.152 15.4605C113.152 13.5392 113.682 11.9551 114.74 10.67C115.799 9.38482 117.196 8.74316 118.931 8.74316C120.667 8.74316 122.062 9.38482 123.077 10.67C124.093 11.9551 124.601 13.5611 124.601 15.4897C124.601 17.5149 124.074 19.1501 123.019 20.3951C121.964 21.642 120.566 22.2636 118.825 22.2636L118.823 22.2654ZM118.843 20.3623C119.717 20.3623 120.457 20.0105 121.061 19.305C121.665 18.5996 121.968 17.3217 121.968 15.4697C121.968 13.9639 121.718 12.7827 121.218 11.9278C120.719 11.0728 119.943 10.6444 118.892 10.6444C116.814 10.6444 115.776 12.2759 115.776 15.5371C115.776 17.1194 116.04 18.3188 116.569 19.1355C117.098 19.9522 117.856 20.3605 118.841 20.3605L118.843 20.3623Z" fill="#636363"></path><path d="M118.822 22.5869C116.933 22.5869 115.439 21.8833 114.382 20.4979C113.348 19.1398 112.824 17.4463 112.824 15.463C112.824 13.4797 113.383 11.8081 114.483 10.4719C115.601 9.11386 117.098 8.4248 118.93 8.4248C120.763 8.4248 122.259 9.11568 123.336 10.4756C124.393 11.8117 124.928 13.4979 124.928 15.4904C124.928 17.5812 124.371 19.3002 123.271 20.5999C122.156 21.9179 120.658 22.5851 118.822 22.5851V22.5869ZM118.93 9.06464C117.285 9.06464 115.998 9.65526 114.995 10.8711C113.989 12.0907 113.481 13.6365 113.481 15.4612C113.481 17.2859 113.961 18.87 114.909 20.1151C115.848 21.3473 117.127 21.9471 118.822 21.9471C120.516 21.9471 121.765 21.3728 122.764 20.1934C123.765 19.0122 124.271 17.4299 124.271 15.4904C124.271 13.5508 123.781 12.087 122.816 10.8657C121.857 9.65344 120.587 9.06282 118.93 9.06282V9.06464ZM118.842 20.6838C117.741 20.6838 116.882 20.2208 116.291 19.3093C115.73 18.4435 115.446 17.1765 115.446 15.5396C115.446 13.9026 115.725 12.5646 116.275 11.7024C116.856 10.7909 117.735 10.3279 118.891 10.3279C120.047 10.3279 120.943 10.8146 121.504 11.7716C122.029 12.6722 122.297 13.9172 122.297 15.4721C122.297 17.419 121.975 18.7406 121.313 19.5117C120.645 20.29 119.815 20.6838 118.842 20.6838ZM118.891 10.9677C117.015 10.9677 116.103 12.4625 116.103 15.5396C116.103 17.0526 116.353 18.2065 116.845 18.9684C117.314 19.6921 117.967 20.044 118.84 20.044C119.62 20.044 120.264 19.7359 120.808 19.1015C121.36 18.4599 121.638 17.2385 121.638 15.4721C121.638 14.0302 121.401 12.8909 120.931 12.0888C120.49 11.3341 119.822 10.9677 118.889 10.9677H118.891Z" fill="#636363"></path><path d="M131.008 22.0657H128.582V8.94629H134.093C135.664 8.94629 136.829 9.33274 137.589 10.1038C138.348 10.8767 138.728 11.7882 138.728 12.8382C138.728 14.0358 138.316 15.0074 137.495 15.7493C136.674 16.4931 135.632 16.865 134.37 16.865H131.008V22.0639V22.0657ZM131.008 14.8379H133.876C134.626 14.8379 135.197 14.6593 135.591 14.3001C135.986 13.941 136.182 13.4634 136.182 12.8673C136.182 12.3296 135.999 11.8684 135.634 11.4838C135.27 11.0991 134.611 10.9077 133.658 10.9077H131.006V14.8379H131.008Z" fill="#636363"></path><path d="M131.336 22.3844H128.254V8.62695H134.094C135.751 8.62695 137.006 9.04987 137.827 9.88293C138.643 10.7123 139.058 11.7077 139.058 12.8378C139.058 14.123 138.607 15.1821 137.721 15.9842C136.84 16.7808 135.714 17.1836 134.371 17.1836H131.338V22.3825L131.336 22.3844ZM128.91 21.7445H130.679V16.5456H134.369C135.557 16.5456 136.505 16.2084 137.272 15.5157C138.031 14.8303 138.399 13.9535 138.399 12.8378C138.399 11.8644 138.057 11.0423 137.352 10.3241C136.66 9.62043 135.564 9.26497 134.094 9.26497H128.91V21.7445ZM133.877 15.1566H130.679V10.5866H133.661C134.719 10.5866 135.445 10.809 135.879 11.2665C136.299 11.7095 136.512 12.2491 136.512 12.867C136.512 13.5524 136.279 14.1121 135.817 14.5331C135.362 14.9469 134.71 15.1566 133.877 15.1566ZM131.336 14.5167H133.877C134.538 14.5167 135.039 14.3654 135.37 14.0647C135.697 13.7657 135.858 13.3738 135.858 12.867C135.858 12.4076 135.708 12.0267 135.398 11.7004C135.099 11.385 134.515 11.2264 133.662 11.2264H131.338V14.5167H131.336Z" fill="#636363"></path><path d="M146.912 22.2654C145.125 22.2654 143.733 21.611 142.736 20.304C141.74 18.997 141.242 17.3819 141.242 15.4605C141.242 13.5392 141.771 11.9551 142.83 10.67C143.888 9.38482 145.285 8.74316 147.021 8.74316C148.756 8.74316 150.152 9.38482 151.167 10.67C152.183 11.9551 152.691 13.5611 152.691 15.4897C152.691 17.5149 152.164 19.1501 151.109 20.3951C150.054 21.642 148.655 22.2636 146.914 22.2636L146.912 22.2654ZM146.933 20.3623C147.806 20.3623 148.547 20.0105 149.151 19.305C149.755 18.5996 150.058 17.3217 150.058 15.4697C150.058 13.9639 149.807 12.7827 149.308 11.9278C148.809 11.0728 148.033 10.6444 146.982 10.6444C144.904 10.6444 143.866 12.2759 143.866 15.5371C143.866 17.1194 144.13 18.3188 144.659 19.1355C145.188 19.9522 145.946 20.3605 146.931 20.3605L146.933 20.3623Z" fill="#636363"></path><path d="M146.912 22.5869C145.023 22.5869 143.529 21.8833 142.472 20.4979C141.438 19.1398 140.914 17.4463 140.914 15.463C140.914 13.4797 141.473 11.8081 142.573 10.4719C143.691 9.11386 145.187 8.4248 147.02 8.4248C148.853 8.4248 150.349 9.11568 151.426 10.4756C152.483 11.8117 153.018 13.4979 153.018 15.4904C153.018 17.5812 152.46 19.3002 151.361 20.5999C150.246 21.9179 148.748 22.5851 146.912 22.5851V22.5869ZM147.02 9.06464C145.374 9.06464 144.088 9.65526 143.085 10.8711C142.079 12.0907 141.57 13.6365 141.57 15.4612C141.57 17.2859 142.051 18.87 142.999 20.1151C143.938 21.3473 145.217 21.9471 146.912 21.9471C148.606 21.9471 149.855 21.3728 150.854 20.1934C151.854 19.0122 152.361 17.4299 152.361 15.4904C152.361 13.5508 151.871 12.087 150.906 10.8657C149.947 9.65344 148.677 9.06282 147.02 9.06282V9.06464ZM146.932 20.6838C145.831 20.6838 144.972 20.2208 144.381 19.3093C143.82 18.4435 143.536 17.1765 143.536 15.5396C143.536 13.9026 143.815 12.5646 144.364 11.7024C144.946 10.7909 145.825 10.3279 146.981 10.3279C148.137 10.3279 149.032 10.8146 149.593 11.7716C150.119 12.6722 150.386 13.9172 150.386 15.4721C150.386 17.419 150.065 18.7406 149.403 19.5117C148.735 20.29 147.905 20.6838 146.932 20.6838ZM146.981 10.9677C145.105 10.9677 144.192 12.4625 144.192 15.5396C144.192 17.0526 144.443 18.2065 144.935 18.9684C145.404 19.6921 146.057 20.044 146.93 20.044C147.71 20.044 148.354 19.7359 148.898 19.1015C149.449 18.4599 149.728 17.2385 149.728 15.4721C149.728 14.0302 149.491 12.8909 149.021 12.0888C148.58 11.3341 147.912 10.9677 146.979 10.9677H146.981Z" fill="#636363"></path><path d="M164.505 22.0657H156.223V8.94629H158.777V19.922H164.505V22.0657Z" fill="#636363"></path><path d="M164.833 22.3844H155.895V8.62695H159.103V19.6026H164.831V22.3862L164.833 22.3844ZM156.551 21.7445H164.177V20.2406H158.449V9.26679H156.551V21.7445Z" fill="#636363"></path><path d="M169.992 22.0657H167.566V8.94629H169.992V22.0657Z" fill="#636363"></path><path d="M170.32 22.3844H167.238V8.62695H170.32V22.3844ZM167.895 21.7445H169.664V9.26679H167.895V21.7445Z" fill="#636363"></path><path d="M172.812 18.903L175.169 18.4127C175.451 19.7142 176.536 20.3632 178.423 20.3632C179.283 20.3632 179.947 20.1973 180.409 19.8637C180.873 19.5301 181.105 19.1181 181.105 18.6241C181.105 18.265 181 17.9332 180.789 17.6288C180.577 17.3244 180.129 17.0856 179.438 16.9124L176.865 16.258C175.984 16.0338 175.333 15.7786 174.913 15.4942C174.492 15.2098 174.155 14.807 173.903 14.2874C173.65 13.7679 173.523 13.2138 173.523 12.625C173.523 11.4528 173.97 10.5122 174.864 9.80494C175.758 9.09765 176.903 8.74219 178.296 8.74219C179.453 8.74219 180.486 8.98828 181.396 9.48228C182.307 9.97629 182.887 10.6745 183.138 11.5768L180.83 12.1346C180.474 11.1411 179.646 10.6453 178.344 10.6453C177.589 10.6453 177.011 10.7984 176.615 11.1065C176.216 11.4146 176.018 11.8047 176.018 12.2786C176.018 13.0278 176.643 13.5528 177.892 13.8554L180.179 14.4132C181.567 14.7523 182.496 15.2536 182.969 15.9171C183.442 16.5806 183.68 17.3116 183.68 18.1137C183.68 19.4007 183.182 20.416 182.186 21.1561C181.191 21.8962 179.9 22.2663 178.316 22.2663C176.981 22.2663 175.814 21.9947 174.812 21.4496C173.809 20.9046 173.144 20.0569 172.814 18.903H172.812Z" fill="#636363"></path><path d="M178.314 22.5869C176.93 22.5869 175.696 22.2989 174.648 21.7301C173.571 21.145 172.847 20.2226 172.496 18.9903L172.402 18.6622L175.421 18.0351L175.488 18.3487C175.737 19.4916 176.696 20.0458 178.42 20.0458C179.206 20.0458 179.808 19.8981 180.212 19.6083C180.59 19.3367 180.773 19.0158 180.773 18.6257C180.773 18.3286 180.689 18.0625 180.513 17.8091C180.401 17.6468 180.109 17.4135 179.354 17.2239L176.778 16.5695C175.851 16.3325 175.178 16.0682 174.721 15.7583C174.256 15.443 173.878 14.9945 173.601 14.4276C173.328 13.868 173.19 13.2628 173.19 12.6284C173.19 11.3597 173.682 10.3279 174.652 9.55865C175.602 8.80579 176.825 8.4248 178.29 8.4248C179.498 8.4248 180.594 8.6873 181.549 9.205C182.537 9.73911 183.174 10.5102 183.447 11.4964L183.535 11.8117L180.612 12.5172L180.513 12.242C180.206 11.3834 179.496 10.9677 178.338 10.9677C177.661 10.9677 177.149 11.099 176.812 11.3597C176.494 11.6058 176.339 11.9065 176.339 12.2821C176.339 12.499 176.339 13.157 177.962 13.5471L180.251 14.105C181.733 14.4677 182.707 15.0018 183.232 15.7364C183.743 16.451 184.001 17.2513 184.001 18.1153C184.001 19.5026 183.455 20.6109 182.378 21.4111C181.329 22.1913 179.96 22.5869 178.308 22.5869H178.314ZM173.233 19.1434C173.564 20.0531 174.132 20.7184 174.968 21.1705C175.916 21.6864 177.042 21.9471 178.314 21.9471C179.817 21.9471 181.052 21.5952 181.985 20.9025C182.903 20.2208 183.35 19.3093 183.35 18.1153C183.35 17.3843 183.131 16.7081 182.699 16.1029C182.275 15.5086 181.4 15.0456 180.098 14.7266L177.811 14.1688C176.403 13.8297 175.688 13.1953 175.688 12.2821C175.688 11.7078 175.931 11.2284 176.408 10.8584C176.863 10.5066 177.513 10.3279 178.342 10.3279C179.672 10.3279 180.571 10.8092 181.024 11.7607L182.712 11.3524C182.449 10.6816 181.963 10.1602 181.233 9.76463C180.377 9.2998 179.387 9.06464 178.291 9.06464C176.982 9.06464 175.898 9.39823 175.067 10.0545C174.246 10.7052 173.848 11.5456 173.848 12.6266C173.848 13.1662 173.966 13.6784 174.196 14.1524C174.422 14.6172 174.727 14.9818 175.097 15.2333C175.484 15.4958 176.105 15.7364 176.945 15.9497L179.518 16.6023C180.294 16.7974 180.799 17.0745 181.059 17.45C181.306 17.8073 181.431 18.201 181.431 18.6239C181.431 19.2218 181.153 19.7268 180.603 20.1205C180.085 20.4942 179.35 20.682 178.422 20.682C176.519 20.682 175.346 20.0458 174.933 18.788L173.235 19.1416L173.233 19.1434Z" fill="#636363"></path><path d="M123.031 8.62695H126.263V12.7412C126.263 12.7412 125.417 9.60038 123.031 8.62695Z" fill="#636363"></path><path d="M126.482 14.3951L126.052 12.7964C126.044 12.7655 125.203 9.74491 122.947 8.82617L121.941 8.41602H126.48V14.3951H126.482ZM123.884 8.84257C124.965 9.56809 125.651 10.6983 126.044 11.5478V8.84257H123.884Z" fill="#636363"></path></svg>