<?xml version="1.0" encoding="utf-8"?>
<!-- Generator: Adobe Illustrator 27.5.0, SVG Export Plug-In . SVG Version: 6.00 Build 0)  -->
<svg version="1.1" id="Capa_1" xmlns="http://www.w3.org/2000/svg" xmlns:xlink="http://www.w3.org/1999/xlink" x="0px" y="0px"
	 viewBox="0 0 2122 2122" style="enable-background:new 0 0 2122 2122;" xml:space="preserve">
<path style="fill:#DB513A;" d="M1375.979,262.487c-183.789-106.112-350.298-115.951-470.543-46.074l-110.147,64.011
	c-130.129,64.52-213.515,217.317-214.141,436.596c0,6.635,0.05,13.271,0.15,19.956c3.849,199.325,72.818,417.604,183.178,613.733
	l-271.01,157.142c-35.53-2.6-188.339-11.307-255.695,25.225c-25.645,13.909-40.505,36.708-48.93,60.872
	c-101.938,23.321-59.276,98.799-46.755,117.647l-50.402,29.225l0.625-0.298c-3.849,1.86-6.246,6.334-6.166,12.866
	c0.149,12.16,8.775,26.757,19.265,32.603c5.202,2.899,9.882,3.095,13.265,1.08l-0.081,0.056l45.49-26.377
	c57.806,87.573,103.103,48.805,125.229,17.307c29.085,7.65,62.543,7.668,95.423-11.606
	c90.902-53.287,122.015-167.203,130.668-209.41l276.108-160.099c117.613,193.73,275.303,361.685,448.84,461.867
	c183.914,106.151,350.518,116,470.755,46.031l-0.142,0.084l131.306-76.307c118.714-68.989,192.316-215.695,192.907-424.22
	C2036.365,984.652,1741.268,473.387,1375.979,262.487z"/>
<path style="fill:#EBEDEE;" d="M1236.258,459.686c-298.544-172.371-545.152-55.029-578.079,259.729
	c-2.445,22.949-3.742,46.947-3.792,71.992c-0.492,172.905,56.36,363.49,149.988,536.167l-39.899,23.135l-271.01,157.143
	c-35.53-2.6-188.339-11.308-255.695,25.225c-25.645,13.909-40.505,36.708-48.93,60.872
	c-101.938,23.321-59.276,98.799-46.755,117.647l-50.402,29.225l0.624-0.298c-3.849,1.86-6.246,6.334-6.165,12.866
	c0.149,12.16,8.774,26.756,19.265,32.602c5.202,2.899,9.883,3.096,13.265,1.081l-0.081,0.056l45.49-26.376
	c57.806,87.573,103.103,48.805,125.229,17.307c29.085,7.65,62.543,7.668,95.423-11.606
	c90.902-53.287,122.015-167.203,130.668-209.41l276.108-160.099l39.28-22.776c103.946,175.558,245.505,328.338,401.677,418.538
	c282.579,163.141,518.61,66.853,571.045-210.837c6.985-37.068,10.726-77.38,10.826-120.784
	C1815.385,1092.994,1556.604,644.63,1236.258,459.686z"/>
<path style="fill:#DB513A;" d="M1232.816,1671.024c-127.103-73.384-242.365-197.501-327.233-340.224l65.396-37.919
	c68.173,113.999,160.437,213.053,262.137,271.776c210.737,121.633,382.11,23.997,382.809-218.17
	c0.249-90.551-23.399-188.486-64.159-281.98c-68.15-156.506-184.245-300.589-316.155-376.772
	c-139.443-80.523-261.625-64.957-328.528,24.945c-34.225,45.949-53.981,111.355-54.231,193.275
	c-0.316,109.583,34.367,229.954,91.966,340.185l-65.54,38.003c-74.396-139.384-119.414-292.508-119.022-431.621
	c0.15-54.63,7.284-103.323,20.455-145.53c59.32-190.481,240.87-249.402,455.199-125.624
	c227.749,131.461,417.432,425.814,462.433,698.215c6.735,40.81,10.228,81.172,10.128,120.385
	C1707.622,1700.858,1494.69,1822.241,1232.816,1671.024z"/>
<path style="fill:#DB513A;" d="M1218.811,1139.823c-0.149-12.16-8.774-26.757-19.265-32.603c-5.159-2.875-9.808-3.098-13.184-1.136
	l-10.144,5.882l-2.16,1.252l-39.295,22.785c-12.483-27.927-19.766-57.329-19.689-84.467c0.2-70.545,50.14-98.982,111.555-63.56
	c61.365,35.472,110.956,121.383,110.756,191.928c-0.2,70.595-50.09,99.032-111.505,63.56c-24.081-13.889-46.342-35.54-64.498-60.986
	l39.915-23.144l2.212-1.282l9.76-5.66C1216.759,1150.364,1218.887,1146.002,1218.811,1139.823z"/>
<path style="fill:#DB513A;" d="M1225.631,1338.505c107.065,61.814,194.123,12.173,194.473-110.856s-86.161-272.85-193.225-334.664
	c-107.065-61.864-194.123-12.173-194.473,110.856c-0.152,53.53,16.132,112.13,43.398,166.349l-62.284,36.115
	c-40.096-79.661-64.05-165.772-63.833-244.422c0.399-129.016,65.656-203.054,160.198-201.806
	c37.867,0.449,80.423,12.971,125.424,38.964c30.134,17.412,59.12,39.513,86.36,65.257
	c114.897,108.412,197.815,280.234,197.366,426.263c-0.499,180.703-128.368,253.543-285.572,162.792
	c-75.107-43.368-143.316-116.212-194.03-200.164l63.105-36.591C1135.941,1267.655,1178.813,1311.486,1225.631,1338.505z"/>
<path style="fill:#DB513A;" d="M500.6,1508.702l-319.846,186.47c0,0-19.424-120.428,56.977-161.866
	C314.132,1491.868,500.6,1508.702,500.6,1508.702z"/>
<path style="fill:#DB513A;" d="M517.9,1541.094l-314.667,189.059c0,0,92.747,88.162,181.29,36.258
	C497.181,1700.37,517.9,1541.094,517.9,1541.094z"/>
<path style="fill:#A8241B;" d="M1263.799,1122.889c-5.202-16.815-14.317-33.466-25.765-47.168
	c-17.073,3.948-34.146,7.896-51.22,11.843l0.028-0.005c-7.989,1.832-13.161,9.58-13.012,21.72c0.016,1.297,0.094,2.612,0.227,3.939
	l2.16-1.253l10.144-5.881c3.375-1.962,8.025-1.739,13.184,1.136c10.491,5.846,19.116,20.443,19.265,32.602
	c0.076,6.18-2.052,10.541-5.541,12.568l-9.76,5.66l-2.212,1.283c1.095,0.747,2.206,1.439,3.331,2.066
	c10.292,5.735,19.299,4.846,24.68-1.172l-0.149,0.206L1263.799,1122.889z"/>
<path style="fill:#C63127;" d="M1375.979,262.487c-183.789-106.112-350.298-115.951-470.543-46.074L774.131,292.72
	c117.44-68.248,279.015-60.453,457.717,38.809c0.569,0.316,1.14,0.638,1.71,0.956c0.851,0.475,1.701,0.948,2.552,1.427
	c2.856,1.606,5.715,3.236,8.579,4.889c365.297,210.887,660.348,722.163,659.201,1141.89
	c-0.302,101.001-17.693,187.485-49.078,257.659l-0.03,0.068c-0.437,0.978-0.878,1.952-1.321,2.923l-0.471,1.028
	c-0.269,0.586-0.539,1.171-0.811,1.755c-0.409,0.882-0.82,1.76-1.233,2.636l-0.29,0.616
	c-27.791,58.685-65.644,105.439-111.591,139.141l-0.144,0.106c-1.677,1.229-3.364,2.44-5.062,3.633l-0.397,0.279
	c-0.513,0.36-1.027,0.717-1.542,1.074l-0.652,0.449c-0.806,0.555-1.615,1.106-2.427,1.653l-0.914,0.616l-1.305,0.868l-1.041,0.686
	c-0.509,0.335-1.019,0.668-1.53,0.999c-0.56,0.363-1.121,0.725-1.683,1.085l-1.075,0.683c-0.46,0.292-0.922,0.583-1.384,0.872
	l-0.977,0.611c-0.721,0.448-1.444,0.893-2.168,1.336l-0.817,0.495c-0.575,0.349-1.151,0.695-1.729,1.041l-0.774,0.461
	c-0.778,0.462-1.559,0.921-2.341,1.376l-0.142,0.084l131.306-76.307c118.714-68.989,192.316-215.695,192.907-424.22
	C2036.365,984.652,1741.268,473.387,1375.979,262.487z"/>
<path style="fill:#7B1B16;" d="M164.081,1760.751c57.806,87.573,103.103,48.805,125.229,17.307
	c-38.108-10.024-68.707-33.15-80.656-43.153L164.081,1760.751z"/>
<path style="fill:#7B1B16;" d="M188.84,1593.948c-101.938,23.321-59.276,98.799-46.755,117.647l37.927-21.991
	C178.354,1674.778,175.357,1632.616,188.84,1593.948z"/>
<path style="fill:#7B1B16;" d="M1232.22,1141.818c-0.219-17.939-12.944-39.472-28.421-48.097
	c-15.476-8.625-27.844-1.074-27.625,16.865c0.006,0.458,0.022,0.917,0.043,1.379l10.144-5.881c3.375-1.962,8.025-1.739,13.184,1.136
	c10.491,5.846,19.116,20.443,19.265,32.602c0.076,6.18-2.052,10.541-5.541,12.568l-9.76,5.66l1.086,0.632
	C1220.071,1167.307,1232.44,1159.756,1232.22,1141.818z"/>
<path style="fill:#7D511F;" d="M1218.811,1139.823c-0.149-12.16-8.774-26.756-19.265-32.602c-5.159-2.875-9.808-3.099-13.184-1.136
	l-10.144,5.881l-2.16,1.253l-39.295,22.784l-58.958,34.186l-62.284,36.115l-68.704,39.837l-65.54,38.002l-74.901,43.431
	l-39.899,23.135l-271.01,157.142c4.817,0.353,7.48,0.593,7.48,0.593l-320.218,186.686c0,0-0.32-1.983-0.716-5.526l-37.927,21.991
	l-50.402,29.225l0.625-0.298c-3.849,1.86-6.246,6.334-6.166,12.866c0.149,12.16,8.775,26.757,19.265,32.603
	c5.202,2.899,9.882,3.095,13.265,1.08l-0.081,0.056l45.49-26.377l44.574-25.845c-3.519-2.946-5.421-4.754-5.421-4.754
	l315.032-189.279c0,0-0.781,6.006-2.865,16.169l276.108-160.099l39.28-22.776l74.793-43.368l65.396-37.919l68.456-39.693
	l63.105-36.591l58.843-34.12l39.915-23.144l2.212-1.283l9.76-5.66C1216.759,1150.364,1218.887,1146.003,1218.811,1139.823z"/>
<path style="fill:#5F3E1E;" d="M104.907,1745.243c-8.925-4.974-16.057-0.619-15.93,9.726c0.127,10.345,7.465,22.763,16.389,27.737
	c8.925,4.974,16.058,0.619,15.931-9.726C121.17,1762.635,113.833,1750.217,104.907,1745.243z"/>
<path style="fill:#A8241B;" d="M1939.222,999.429c22.858,82.763,40.108,167.203,48.611,252.697
	c4.31,43.342,6.364,86.914,5.839,130.471c-0.348,28.897-2.512,57.625-5.462,86.363c-5.338,51.989-13.513,105.611-36.053,153.266
	c-10.308,21.793-24.209,42.476-43.103,57.736c-6.537,5.28-13.558,9.69-20.906,13.37c-15.605,48.616-37.006,91.68-63.868,128.43
	l10.467-6.083c119.04-69.179,184.905-215.256,185.46-411.322c0.391-137.924-31.778-286.048-88.128-429.982
	C1934.502,982.713,1936.91,991.056,1939.222,999.429z"/>
<path style="fill:#A8241B;" d="M1499.891,384.722c43.771,31.235,85.69,65.009,126.157,100.42
	c-79.01-84.842-166.078-156.879-257.553-209.693c-101.944-58.857-199.247-88.701-289.205-88.701h-0.01
	c-61.724,0.003-117.68,14.338-166.324,42.606l-10.872,6.318c14.949-1.699,30.251-2.552,45.878-2.552
	c15.487,0.001,31.18,0.912,47.028,2.556c45.816-10.182,93.215-12.598,140.043-7.763c64.91,6.702,127.832,26.287,187.224,52.891
	C1384.978,308.899,1444.011,344.845,1499.891,384.722z"/>
<path style="fill:#A8241B;" d="M1427.241,363.399c-68.336-43.407-143.556-79.583-223.044-95.154
	c69.065,24.839,132.248,60.582,191.268,102.951c301.777,221.51,528.064,617.32,565.289,990.265
	C1975.602,987.326,1738.136,566.583,1427.241,363.399z"/>
<path style="fill:#B7CAD7;" d="M1754.213,1552.727c57.2-239.699-36.041-503.327-164.431-705.459
	c-67.656-103.637-150.378-199.475-249.196-274.562c-97.719-73.733-215.667-134.485-340.931-130.254
	c92.19,6.085,177.511,44.574,253.412,94.631C1550.472,733.126,1805.184,1193.019,1754.213,1552.727z"/>
<path style="fill:#B7CAD7;" d="M1550.921,1244.047c4.063,34.7,6.36,70.912,1.97,105.706c10.862-33.831,12.714-71.494,12.602-106.882
	c-0.918-10.193-1.928-30.434-3.139-40.61c-2.069-13.082-3.796-27.32-6.42-40.266l-6.154-26.483
	c-39.02-153.518-141.233-307.726-279.641-387.946c-46.332-27.207-101.136-46.136-155.054-42.01
	c35.587,3.683,69.141,15.335,100.056,31.462c19.379,9.631,37.788,22.006,55.337,34.665c6.972,4.132,24.527,19.122,30.894,24.037
	c9.398,7.353,20.042,18.406,29.053,26.248c8.903,7.998,23.508,24.106,31.954,32.659c38.635,44.008,73.777,92.195,102.199,143.496
	c16.829,29.743,32.294,62.771,45.3,94.352c12.244,32.063,23.951,66.328,31.277,99.942
	C1545.245,1207.171,1548.248,1228.704,1550.921,1244.047z"/>
<path style="fill:#B7CAD7;" d="M1257.729,960.45c-28.409-19.41-64.117-35.1-98.947-29.125
	c63.764,14.663,111.416,69.972,146.129,121.612c34.585,55.115,61.235,116.683,61.222,183.492
	C1401.098,1141.514,1337.097,1015.068,1257.729,960.45z"/>
<path style="fill:#AC8C65;" d="M1190.343,1120.488c21.486,4.254,22.61,27.938,22.61,27.938c3.185-31.526-24.82-35.714-24.82-35.714
	l-676.404,390.466L1190.343,1120.488z"/>
<path style="fill:#5A361B;" d="M1206.053,1151.929l-685.727,360.484c0,0,7.643,13.587,2.123,33.119L1206.053,1151.929z"/>
<path style="fill:#A8241B;" d="M284.037,1699.024l-55.41,33.756c0,0,57.307,49.262,114.642,36.303
	c57.335-12.958,110.945-66.995,139.481-130.563C482.749,1638.519,363.013,1805.385,284.037,1699.024z"/>
<path style="fill:#A8241B;" d="M400.589,1540.874c-13.147,17.775-145.849,101.466-145.849,101.466l222.914-127.38
	c0,0-78.976-7.006-126.743,4.458C350.912,1519.418,412.691,1524.514,400.589,1540.874z"/>
</svg>
